# xmcd
#
# Track frame offsets: 
#        150
#        12985
#        27423
#        38983
#        51480
#        64621
#        77748
#        89847
#        104137
#        115516
#        127277
#        139756
#        152099
#        165484
#        176639
#        186007
#
# Disc length: 2639 seconds
#
# Revision: 0
# Processed by: cddbd v1.5.2PL0 Copyright (c) Steve Scherf et al.
# Submitted via: ExactAudioCopy v1.3
#
DISCID=e20a4d10
DTITLE=Various Artist - Remembering Kitty Wells (2016)
DYEAR=2016
DGENRE=Country
TTITLE0=Loretta Lynn - It Wasn't God Who Made Honky Tonk Angels
TTITLE1=The Whites - How Far Is Heaven
TTITLE2=Rhonda Vincent - Mommy For A Day
TTITLE3=Bill Anderson - We Missed You
TTITLE4=Ronnie Milsap - Searching
TTITLE5=Wanda Jackson - Making Believe
TTITLE6=Mona McCall - Amigo's Guitar
TTITLE7=Justin Trevino - A Tribute to Kitty Wells
TTITLE8=Will Your Lawyer Talk To God For You
TTITLE9=Amber Digby - There Must Be Another Way To Live
TTITLE10=George Hamilton IV - Oh So Many Years
TTITLE11=Georgette Jones - You Don't Hear
TTITLE12=Jan Howard - It's All Over but the Crying
TTITLE13=Dottsy - The Lonely Side of Town
TTITLE14=Tom T. Hall - Kitty Wells Started it All
TTITLE15=Joe Paul Nichols - Dust on the Bible
EXTD=
EXTT0=
EXTT1=
EXTT2=
EXTT3=
EXTT4=
EXTT5=
EXTT6=
EXTT7=
EXTT8=
EXTT9=
EXTT10=
EXTT11=
EXTT12=
EXTT13=
EXTT14=
EXTT15=
PLAYORDER=
